<svg t="1715086382902" class="icon" viewBox="0 0 1024 1024" version="1.1" xmlns="http://www.w3.org/2000/svg" p-id="1030" width="200" height="200"><path d="M757.1456 842.478933a27.306667 27.306667 0 0 1 0-54.613333 41.301333 41.301333 0 0 0 40.96-40.96l0.6144-491.178667a40.96 40.96 0 0 0-40.96-41.301333l-490.837333-0.6144a41.3696 41.3696 0 0 0-41.301334 40.96L225.28 745.949867a40.96 40.96 0 0 0 40.96 40.96h40.96a27.306667 27.306667 0 1 1 0 54.613333h-40.96a95.914667 95.914667 0 0 1-95.573333-95.982933V254.976a96.0512 96.0512 0 0 1 95.914666-95.573333l490.973867 0.6144a95.982933 95.982933 0 0 1 95.573333 95.982933l0.2048 490.769067a95.982933 95.982933 0 0 1-96.187733 95.709866z" fill="#333333" p-id="1031"></path><path d="M743.2192 374.033067a13.653333 13.653333 0 0 1-13.653333-13.653334v-58.026666a13.653333 13.653333 0 0 0-3.959467-9.6256 13.653333 13.653333 0 0 0-9.693867-4.027734H584.021333a13.653333 13.653333 0 0 1 0-27.306666h131.8912a40.96 40.96 0 0 1 40.96 40.96v58.026666a13.653333 13.653333 0 0 1-13.653333 13.653334z" fill="#333333" p-id="1032"></path><path d="M540.672 276.411733m-13.653333 0a13.653333 13.653333 0 1 0 27.306666 0 13.653333 13.653333 0 1 0-27.306666 0Z" fill="#333333" p-id="1033"></path><path d="M540.603733 864.802133c-18.568533 0-40.96 0-67.515733-0.8192h-0.682667a122.2656 122.2656 0 0 1-43.895466-10.6496 55.9104 55.9104 0 0 1-26.760534 6.826667h-11.0592l-17.2032-0.887467h-4.9152c-20.48-0.887467-62.941867-2.730667-64.3072-52.6336l-1.979733-157.013333v-1.8432A75.707733 75.707733 0 0 1 326.314667 593.92a64.989867 64.989867 0 0 1 46.4896-16.520533l50.9952 2.321066a31.9488 31.9488 0 0 0 18.295466-7.304533 70.8608 70.8608 0 0 0 11.4688-9.693867 103.082667 103.082667 0 0 0 8.123734-41.5744 83.7632 83.7632 0 0 1 8.738133-35.157333 58.026667 58.026667 0 0 1 56.388267-31.061333A63.624533 63.624533 0 0 1 556.578133 464.213333a76.117333 76.117333 0 0 1 26.692267 28.0576 138.308267 138.308267 0 0 1 15.906133 68.266667 194.3552 194.3552 0 0 1-1.774933 27.306667l35.84 1.6384a91.477333 91.477333 0 0 1 53.794133 18.773333 64.3072 64.3072 0 0 1 24.7808 51.882667v0.8192a77.277867 77.277867 0 0 1-6.826666 26.692266 71.0656 71.0656 0 0 1 4.027733 28.0576 62.6688 62.6688 0 0 1-16.9984 38.843734v6.826666a57.821867 57.821867 0 0 1-23.7568 44.168534 63.214933 63.214933 0 0 1-29.4912 50.312533c-6.007467 4.3008-13.789867 8.942933-98.167467 8.942933z m-66.013866-55.432533c54.613333 1.160533 118.920533 0.8192 137.216-1.4336a11.810133 11.810133 0 0 0 2.048-6.826667 48.3328 48.3328 0 0 1 21.367466-39.1168c2.4576-1.6384 2.525867-2.730667 2.594134-3.6864s0-0.4096 0-0.682666a49.425067 49.425067 0 0 1 13.653333-39.799467 12.151467 12.151467 0 0 0 3.208533-5.051733 15.086933 15.086933 0 0 0-0.8192-6.826667 46.8992 46.8992 0 0 1 0.750934-39.389867 24.302933 24.302933 0 0 0 2.525866-8.260266 9.489067 9.489067 0 0 0-4.369066-7.850667 39.458133 39.458133 0 0 0-22.050134-6.826667L588.663467 641.706667a49.015467 49.015467 0 0 1-36.181334-18.363734 47.786667 47.786667 0 0 1-9.966933-38.365866 136.533333 136.533333 0 0 0 2.048-24.712534 87.790933 87.790933 0 0 0-8.669867-40.96 22.459733 22.459733 0 0 0-7.304533-8.328533 9.352533 9.352533 0 0 0-4.3008-1.365333c-4.3008 0-4.846933 0.750933-5.597867 2.116266a29.559467 29.559467 0 0 0-2.4576 12.151467 153.053867 153.053867 0 0 1-13.653333 63.0784 48.5376 48.5376 0 0 1-6.212267 9.898667 120.490667 120.490667 0 0 1-23.7568 20.957866 85.538133 85.538133 0 0 1-51.268266 16.657067l-50.9952-2.389333a10.0352 10.0352 0 0 0-7.5776 2.594133 21.981867 21.981867 0 0 0-5.870934 14.882133l1.979734 154.077867c3.4816 0.4096 8.192 0.6144 12.014933 0.750933h5.5296l16.725333 0.887467h8.6016c1.160533-0.546133 3.413333-2.048 4.983467-3.072l1.297067-0.887467a57.617067 57.617067 0 0 1 6.826666-4.369066 27.306667 27.306667 0 0 1 24.849067 0.341333l3.2768 1.774933c2.184533 1.2288 5.188267 2.8672 8.3968 4.437334a67.106133 67.106133 0 0 0 23.210667 5.870933z m-73.250134-3.345067z m289.314134-49.902933z" fill="#333333" p-id="1034"></path><path d="M422.570667 607.163733l-50.9952-2.321066a37.205333 37.205333 0 0 0-27.306667 9.489066 48.469333 48.469333 0 0 0-14.9504 34.542934l2.2528 156.672c0.682667 25.873067 18.500267 25.122133 41.847467 26.2144l18.500266 0.955733 10.171734 0.4096a35.293867 35.293867 0 0 0 20.48-6.826667z" fill="#1990FF" p-id="1035"></path><path d="M402.773333 860.501333h-0.750933l-11.332267-0.341333-17.2032-0.887467h-4.9152c-20.48-0.887467-62.941867-2.730667-64.3072-52.6336l-1.979733-157.013333v-1.8432A75.707733 75.707733 0 0 1 326.314667 593.92a64.989867 64.989867 0 0 1 46.4896-16.520533l50.9952 2.321066a27.306667 27.306667 0 0 1 26.077866 27.306667L449.536 826.026667a27.306667 27.306667 0 0 1-12.014933 22.596266 61.8496 61.8496 0 0 1-34.747734 11.8784z m-43.6224-56.866133c3.4816 0.4096 8.192 0.6144 12.014934 0.750933h5.5296l16.725333 0.887467h1.774933V632.900267l-24.849066-1.160534a10.0352 10.0352 0 0 0-7.5776 2.594134 21.981867 21.981867 0 0 0-5.870934 14.882133z" fill="#333333" p-id="1036"></path></svg>